<svg enable-background="new 0 0 960 184.248" height="184.248" viewBox="0 0 960 184.248" width="960" xmlns="http://www.w3.org/2000/svg"><g fill="#737d84"><path d="m161.434 150.34h7.977v11.423h17.223v-11.423h7.984v32.625h-7.984v-12.749h-17.223v12.749h-7.977z"/><path d="m222.38 149.836c7.396 0 11.953.778 13.671 2.331 1.502 1.338 2.251 4.911 2.251 10.692h-8.018c0-1.886-.398-3.095-1.195-3.606-.997-.65-3.229-.965-6.709-.965-3.896 0-6.176.384-6.855 1.144-.68.764-1.02 3.165-1.02 7.217 0 4.017.34 6.41 1.02 7.174.68.76 2.96 1.14 6.855 1.14 3.526 0 5.733-.255 6.622-.8.877-.53 1.315-1.787 1.315-3.768h7.984c0 5.813-.728 9.381-2.175 10.688-1.717 1.557-6.303 2.335-13.747 2.335-7.447 0-11.949-.858-13.51-2.568-1.561-1.703-2.342-6.457-2.342-14.252 0-7.766.752-12.472 2.247-14.112 1.627-1.767 6.158-2.65 13.606-2.65"/><path d="m246.969 158.704v-8.452h30.868v8.452h-11.431v24.258h-7.974v-24.258z"/><path d="m287.732 150.249h19.515c4.253 0 7.06.653 8.412 1.973 1.695 1.611 2.539 5.072 2.539 10.378 0 5.277-.837 8.727-2.503 10.346-1.382 1.341-4.195 2.014-8.448 2.014h-11.533v8.003h-7.981v-32.714zm7.982 16.264h11.533c.942 0 1.647-.252 2.134-.782.585-.61.877-1.645.877-3.124 0-1.439-.292-2.478-.877-3.124-.486-.516-1.191-.779-2.134-.779h-11.533z"/><path d="m424.639 182.962v-32.71h27.922v7.904h-19.948v4.568h19.05v7.853h-19.05v4.48h19.948v7.905z"/><path d="m463.805 150.34h7.982v11.423h17.226v-11.423h7.981v32.625h-7.981v-12.749h-17.226v12.749h-7.982z"/><path d="m507.069 158.704v-8.452h30.863v8.452h-11.419v24.258h-7.973v-24.258z"/><path d="m581.553 149.836c7.4 0 11.953.778 13.671 2.331 1.498 1.338 2.255 4.911 2.255 10.692h-8.021c0-1.886-.398-3.095-1.195-3.606-.997-.65-3.23-.965-6.709-.965-3.896 0-6.172.384-6.855 1.144-.684.764-1.012 3.165-1.012 7.217 0 4.017.332 6.41 1.012 7.174.684.76 2.96 1.14 6.855 1.14 3.522 0 5.733-.255 6.625-.8.873-.53 1.323-1.787 1.323-3.768h7.98c0 5.813-.727 9.381-2.178 10.688-1.718 1.557-6.308 2.335-13.747 2.335-7.447 0-11.946-.858-13.503-2.568-1.561-1.703-2.342-6.457-2.342-14.252 0-7.766.737-12.472 2.243-14.112 1.609-1.767 6.14-2.65 13.598-2.65"/><path d="m724.176 182.962v-32.71h27.921v7.904h-19.944v4.568h19.046v7.853h-19.046v4.48h19.944v7.905z"/><path d="m762.68 150.34h7.974v11.423h17.23v-11.423h7.977v32.625h-7.977v-12.749h-17.23v12.749h-7.974z"/><path d="m806.44 182.962v-32.71h27.926v7.904h-19.944v4.568h19.034v7.853h-19.034v4.48h19.944v7.905z"/><path d="m94.265 184.248v-33.831h14.055v6.333l39.119-31.72v16.104zm39.119-22.514 14.059-11.317v32.545h-14.059z"/></g><path d="m147.581 38.479-24.177 22.408c-3.526-3.523-7.477-6.461-11.836-8.811-5.215-2.854-10.919-4.871-17.124-6.048v-32.738c9.899.844 19.547 3.523 28.96 8.054 9.402 4.539 17.456 10.25 24.177 17.135" fill="#9c0015"/><path d="m77.065 150.533v32.486c-23.841-2.686-42.646-11.836-56.407-27.45-13.777-15.611-20.658-34.836-20.658-57.672 0-23.317 6.969-42.631 20.902-57.912 13.938-15.275 32.658-24.177 56.163-26.698v32.738c-12.257 2.014-22.412 7.301-30.473 15.867-8.898 9.577-13.345 21.582-13.345 36.005 0 14.781 4.111 26.786 12.34 36.017 7.549 8.397 18.041 13.93 31.478 16.619" fill="#9c0015"/><path d="m186.839 71.408h-25.404c1.79-17.055 8.727-31.105 20.785-42.142 12.056-11.036 26.873-16.557 44.454-16.557 17.313 0 32.457 5.653 45.415 16.934 12.958 11.299 19.444 25.211 19.444 41.761h-25.408c-1.282-9.494-5.514-17.512-12.698-24.049-7.191-6.545-16.042-9.822-26.563-9.822-10.518 0-19.408 3.277-26.654 9.822-7.247 6.541-11.709 14.559-13.371 24.053m0 12.706c1.279 9.541 5.543 17.635 12.797 24.274 7.247 6.651 16.262 9.966 27.038 9.966 10.648 0 19.689-3.377 27.133-10.155 7.447-6.775 11.548-14.808 12.318-24.089h25.408c0 16.598-6.516 30.597-19.535 41.994-13.028 11.387-28.135 17.08-45.324 17.08-17.193 0-31.916-5.565-44.169-16.707-12.257-11.131-19.28-25.258-21.07-42.367h25.404z" fill="#9c0015"/><path d="m340.598 140.689h-24.826v-125.279h24.826zm13.474-125.279h14.632c10.133 0 18.826 3.687 26.08 11.062 7.247 7.382 10.872 16.141 10.872 26.277s-3.625 18.947-10.872 26.45c-7.254 7.509-15.947 11.262-26.08 11.262h-14.632v-24.827h14.632c2.949 0 5.712-1.345 8.273-4.07 2.568-2.715 3.852-5.62 3.852-8.727 0-2.971-1.283-5.817-3.852-8.532-2.562-2.716-5.324-4.075-8.273-4.075h-14.632z" fill="#9c0015"/><path d="m443.759 71.408h-25.404c1.794-17.055 8.719-31.105 20.785-42.142 12.052-11.036 26.874-16.557 44.454-16.557 17.317 0 32.454 5.653 45.419 16.934 12.958 11.299 19.44 25.211 19.44 41.761h-25.408c-1.278-9.494-5.514-17.512-12.709-24.049-7.185-6.545-16.027-9.822-26.552-9.822-10.521 0-19.408 3.277-26.658 9.822-7.24 6.541-11.708 14.559-13.367 24.053m0 12.706c1.283 9.541 5.54 17.635 12.797 24.274 7.243 6.651 16.262 9.966 27.038 9.966 10.646 0 19.693-3.377 27.133-10.155 7.447-6.775 11.548-14.808 12.318-24.089h25.408c0 16.598-6.519 30.597-19.532 41.994-13.034 11.387-28.138 17.08-45.327 17.08-17.196 0-31.916-5.565-44.169-16.707-12.256-11.131-19.276-25.258-21.07-42.367h25.404z" fill="#9c0015"/><path d="m596.945 140.689h-24.831v-125.279h24.831zm50.038 0-44.842-62.35 15.016-22.134 60.423 84.483h-30.597zm-2.697-125.279h30.017l-33.678 50.615-15.589-21.754z" fill="#9c0015"/><path d="m695.289 143.524v-128.114h24.823v67.358l69.091-70.103v35.607zm69.087-51.144 24.827-25.018v73.323h-24.827z" fill="#9c0015"/><path d="m819.797 15.403h24.827v125.275h-24.827z" fill="#9c0015"/><path d="m854.83 65.634h32.907v24.827h-32.907z" fill="#9c0015"/><path d="m922.96 15.403v141.979l-24.834 25.637v-167.616z" fill="#9c0015"/><path d="m947.524 16.963c-.289-.274-.734-.544-1.309-.815 1.571-.227 2.737-.73 3.494-1.535.745-.796 1.129-1.776 1.129-2.941 0-.903-.237-1.729-.69-2.478-.446-.746-1.06-1.265-1.81-1.561-.767-.296-1.878-.446-3.354-.446h-7.269v16.433h2.167v-7.297h2.533c.544 0 .957.029 1.209.073.321.088.662.238.99.442.329.208.694.574 1.104 1.1.392.519.936 1.275 1.564 2.262l2.178 3.42h2.727l-2.851-4.469c-.584-.876-1.172-1.607-1.812-2.188m-2.968-2.522h-4.677v-5.433h5.207c1.221 0 2.104.249 2.668.746.559.5.848 1.144.848 1.918 0 .53-.146 1.023-.432 1.476-.292.45-.705.771-1.286.987-.555.2-1.336.306-2.328.306m.041-14.441c-8.489 0-15.393 6.921-15.393 15.399 0 8.489 6.914 15.407 15.393 15.407 8.496 0 15.402-6.921 15.402-15.407.001-8.482-6.909-15.399-15.402-15.399m0 27.093c-6.442 0-11.687-5.24-11.687-11.694 0-6.438 5.244-11.686 11.687-11.686 6.445 0 11.7 5.248 11.7 11.686.001 6.453-5.257 11.694-11.7 11.694" fill="#9c0015"/><path d="m325.806 150.252h11.058l11.767 14.428 6.516-14.428h9.001l-9.293 20.815c-1.762 3.993-2.777 6.23-3.048 6.724-.986 1.856-2.104 3.157-3.333 3.884-1.425.859-3.413 1.29-5.952 1.29h-12.952v-8.463h13.353c.556 0 .921-.048 1.107-.161.18-.095.362-.384.56-.837z" fill="#737d84"/><path d="m386.16 150.39 7.44 19.96 7.429-19.96h13.602v32.662h-7.982v-25.806l-9.786 25.806h-6.533l-10.514-25.725v25.725h-7.98v-32.662z" fill="#737d84"/><path d="m625.225 150.34h7.982v24.699l13.963-24.699h13.059v32.625h-7.976v-24.696l-13.971 24.696h-13.057z" fill="#737d84"/><path d="m685.126 150.39 7.444 19.96 7.429-19.96h13.597v32.662h-7.977v-25.806l-9.789 25.806h-6.534l-10.51-25.725v25.725h-7.981v-32.662z" fill="#737d84"/><path d="m859.259 150.39 7.444 19.96 7.436-19.96h13.594v32.662h-7.977v-25.806l-9.79 25.806h-6.538l-10.501-25.725v25.725h-7.993v-32.662z" fill="#737d84"/></svg>