<?xml version="1.0" encoding="UTF-8" standalone="no"?>
<!-- Created with Inkscape (http://www.inkscape.org/) -->

<svg
   xmlns:dc="http://purl.org/dc/elements/1.1/"
   xmlns:cc="http://creativecommons.org/ns#"
   xmlns:rdf="http://www.w3.org/1999/02/22-rdf-syntax-ns#"
   xmlns:svg="http://www.w3.org/2000/svg"
   xmlns="http://www.w3.org/2000/svg"
   xmlns:sodipodi="http://sodipodi.sourceforge.net/DTD/sodipodi-0.dtd"
   xmlns:inkscape="http://www.inkscape.org/namespaces/inkscape"
   version="1.1"
   id="svg2"
   width="796"
   height="152"
   viewBox="0 0 796 152"
   sodipodi:docname="ATLAS LOGO.svg"
   inkscape:export-filename="D:\Workshop\Логотипы Производителей\ATLAS2.png"
   inkscape:export-xdpi="650.08319"
   inkscape:export-ydpi="650.08319"
   inkscape:version="0.92.4 (5da689c313, 2019-01-14)">
  <metadata
     id="metadata8">
    <rdf:RDF>
      <cc:Work
         rdf:about="">
        <dc:format>image/svg+xml</dc:format>
        <dc:type
           rdf:resource="http://purl.org/dc/dcmitype/StillImage" />
        <dc:title></dc:title>
      </cc:Work>
    </rdf:RDF>
  </metadata>
  <defs
     id="defs6" />
  <sodipodi:namedview
     pagecolor="#ffffff"
     bordercolor="#666666"
     borderopacity="1"
     objecttolerance="10"
     gridtolerance="10"
     guidetolerance="10"
     inkscape:pageopacity="0"
     inkscape:pageshadow="2"
     inkscape:window-width="1366"
     inkscape:window-height="703"
     id="namedview4"
     showgrid="false"
     inkscape:zoom="0.67335043"
     inkscape:cx="772.46344"
     inkscape:cy="221.75735"
     inkscape:window-x="-8"
     inkscape:window-y="339"
     inkscape:window-maximized="1"
     inkscape:current-layer="svg2" />
  <path
     style="fill:#000000;fill-opacity:1;stroke:#000000;stroke-width:1px;stroke-linecap:round;stroke-linejoin:round;stroke-opacity:1"
     d="M 64.409301,58.344657 80.072559,33.860158 h 27.565961 l 57.49472,90.836412 H 138.61741 L 115.77704,85.841688 70.621372,87.154353 47.255937,124.69657 H 21.527704 l 39.379948,-57.888522 37.894838,0.115341 -4.661894,-8.38513 z"
     id="path817"
     inkscape:connector-curvature="0"
     sodipodi:nodetypes="ccccccccccccc" />
  <path
     style="fill:#000000;fill-opacity:1;stroke:#000000;stroke-width:1px;stroke-linecap:round;stroke-linejoin:round;stroke-opacity:1"
     d="m 288.43366,33.83024 -134.25731,4e-6 -0.12,17.107755 57.45241,-0.137863 -1.1748,73.939214 16.46269,0.10875 1.08198,-73.955145 60.55503,0.294384 z"
     id="path819"
     inkscape:connector-curvature="0"
     sodipodi:nodetypes="ccccccccc" />
  <path
     style="fill:#000000;fill-opacity:1;stroke:#000000;stroke-width:1px;stroke-linecap:round;stroke-linejoin:round;stroke-opacity:1"
     d="m 309.72522,33.922259 19.20608,-0.02253 0.0225,57.717677 c -0.47786,9.967871 2.07274,14.550821 8.55484,14.906151 l 104.51999,0.80625 -0.18564,17.8262 -121.65122,-10e-6 c -10.38967,-0.18909 -10.24438,-6.11165 -10.46657,-20.41194 z"
     id="path821"
     inkscape:connector-curvature="0"
     sodipodi:nodetypes="ccccccccc" />
  <path
     style="fill:#000000;fill-opacity:1;stroke:#000000;stroke-width:1px;stroke-linecap:round;stroke-linejoin:round;stroke-opacity:1"
     d="m 504.54586,58.344627 15.66325,-24.484499 h 27.56596 l 57.49472,90.836412 h -26.51583 l -22.84037,-38.854882 -45.15566,1.312665 -23.36544,37.542217 h -25.72823 l 39.37995,-57.888522 37.89483,0.115341 -4.66189,-8.38513 z"
     id="path817-4"
     inkscape:connector-curvature="0"
     sodipodi:nodetypes="ccccccccccccc" />
  <path
     style="fill:#000000;fill-opacity:1;stroke:#000000;stroke-width:1px;stroke-linecap:round;stroke-linejoin:round;stroke-opacity:1"
     d="m 759.25085,34.032604 v 19.440634 l -114.20731,0.339427 c -5.95634,6.501131 -4.17098,11.779668 -0.26254,17.327177 l 98.7124,-0.262533 c 8.34279,0.01898 12.22553,3.893268 13.12665,11.288918 0.35507,8.88211 0.41608,21.409443 0.26254,28.454573 -2.78398,14.83848 -10.12281,13.54085 -18.22352,14.26688 l -124.64654,-0.13127 0.39381,-17.85612 121.88221,0.43499 c 3.39701,-4.20053 3.78947,-15.192801 0.18563,-19.393328 l -102.1945,0.262533 c -5.82562,-0.896764 -12.84868,-0.702064 -14.42612,-12.601583 -1.20525,-8.488566 -0.81028,-16.977133 1.03694,-25.465699 3.89712,-15.488673 13.14306,-15.82389 19.50434,-16.104599 z"
     id="path838"
     inkscape:connector-curvature="0"
     sodipodi:nodetypes="ccccccccccccccccc"
     inkscape:export-filename="D:\Workshop\Логотипы Производителей\ATLAS2.png"
     inkscape:export-xdpi="3280.845"
     inkscape:export-ydpi="3280.845" />
</svg>
