<?xml version="1.0" encoding="utf-8"?>
<!-- Generator: Adobe Illustrator 16.0.0, SVG Export Plug-In . SVG Version: 6.00 Build 0)  -->
<!DOCTYPE svg PUBLIC "-//W3C//DTD SVG 1.1//EN" "http://www.w3.org/Graphics/SVG/1.1/DTD/svg11.dtd">
<svg version="1.1" id="Layer_1" xmlns="http://www.w3.org/2000/svg" xmlns:xlink="http://www.w3.org/1999/xlink" x="0px" y="0px"
	 width="160px" height="40px" viewBox="0 0 160 40" enable-background="new 0 0 160 40" xml:space="preserve">
<g>
	<g>
		<path fill="#FFFFFF" d="M127.578,38c11.553,0,28.274-6.271,30.123-17.909c1.846-11.639-12.884-18.089-24.438-18.089L32.422,2
			C20.868,2,4.147,8.448,2.299,20.088C0.452,31.727,15.184,37.997,26.737,37.997L127.578,38z"/>
		<path fill="none" stroke="#FFFFFF" stroke-width="2.9576" d="M127.578,38c11.553,0,28.274-6.271,30.123-17.909
			c1.846-11.639-12.884-18.089-24.438-18.089L32.422,2C20.868,2,4.147,8.448,2.299,20.088C0.452,31.727,15.184,37.997,26.737,37.997
			L127.578,38z"/>
		<path fill="#33117F" d="M127.578,38c11.553,0,28.274-6.271,30.123-17.909c1.846-11.639-12.884-18.089-24.438-18.089L32.422,2
			C20.868,2,4.147,8.448,2.299,20.088C0.452,31.727,15.184,37.997,26.737,37.997L127.578,38z"/>
		<path fill="#C4007A" d="M124.302,36.617c10.69,0,26.166-5.804,27.875-16.573c1.709-10.771-11.923-16.675-22.614-16.675
			L35.714,3.37C25.023,3.369,9.548,9.269,7.838,20.04C6.129,30.811,19.762,36.613,30.453,36.613L124.302,36.617z"/>
		<path fill="#E56425" d="M121.001,35.18c9.794,0,23.973-5.316,25.539-15.185c1.566-9.868-10.925-15.184-20.72-15.184L39.248,4.809
			c-9.795-0.001-23.973,5.315-25.54,15.183c-1.566,9.869,10.924,15.184,20.72,15.186L121.001,35.18z"/>
		<path fill="#FFFFFF" d="M117.071,33.625c8.793,0.001,21.521-4.771,22.927-13.63c1.405-8.858-9.807-13.631-18.6-13.631
			L42.959,6.362c-8.793,0-21.521,4.771-22.927,13.631c-1.406,8.859,9.807,13.63,18.6,13.632H117.071z"/>
		<path d="M51.8,10.438l-2.598,11.468h-0.004c-0.306,1.089-1.496,2.429-2.654,2.429c-1.16,0-1.85-1.34-1.543-2.429h-0.003
			l2.599-11.44h-5.575L39.422,21.75c-0.307,1.341-1.474,2.392-2.633,2.392s-1.878-1.033-1.571-2.374l2.598-11.301h-5.575
			L29.642,21.75l0.024-0.038c-1.119,4.893,1.135,8.84,5.034,8.84c2.22,0,4.494-1.294,6.248-3.303c0.835,2.009,2.52,3.29,4.74,3.291
			c3.899-0.001,7.585-2.965,9.088-8.86l2.598-11.297L51.8,10.438z"/>
		<path d="M68.804,10.466l-1.247,5.378c-0.329,1.292-1.48,2.294-2.605,2.294c-1.109,0-1.782-0.953-1.55-2.219l1.261-5.453h-5.575
			l-1.234,5.322c-0.573,2.65-0.537,3.928-0.402,4.567c0.462,1.946,2.554,3.32,4.875,3.32c1.305,0,2.623-0.426,3.832-1.149
			c-0.284,1.067-1.163,3.424-4.061,3.424c-3.317,0-5.251-1.608-5.251-1.608l-1.317,5.755c0,0,2.602,1.644,7.238,1.644
			c4.637,0,7.672-4.134,8.389-7.265l0.614-2.569h0.012l2.598-11.44H68.804z"/>
		<path d="M90.178,14.997c1.16-5.195-3.24-5.09-3.24-5.09c-3.229,0-5.28,1.97-5.57,2.252l0.405-1.693h-5.576l-4.409,19.067h5.575
			l2.781-12.123c0.33-1.185,1.393-2.123,2.432-2.123c1.076,0,1.719,1.171,1.434,2.26h0.002L81.26,29.577l5.576,0.005l2.533-11.065
			l0.002,0.002L90.178,14.997z"/>
		<path d="M107.055,14.997c1.16-5.194-3.238-5.09-3.238-5.09c-3.23,0-5.282,1.969-5.571,2.253l0.405-1.694h-5.575l-4.409,19.067
			h5.574l2.781-12.122c0.33-1.186,1.393-2.124,2.432-2.124c1.076,0,1.719,1.171,1.434,2.26h0.003l-2.751,11.985h5.575l2.532-11.04
			l0.003,0.014L107.055,14.997z"/>
		<path d="M109.861,10.48l-1.473,6.523h2.978c0,0-0.932,1.634-2.345,3.813h1.466c0,0,3.685-3.657,4.271-6.215
			c0.514-2.245,0.076-4.225-3.183-4.172L109.861,10.48z"/>
		<path d="M126.426,18.173l-3.555-1.299l0.026-0.034c-0.265,0-0.422-0.156-0.352-0.463c0.069-0.306,0.34-0.462,0.604-0.462h6.829
			l1.23-5.448h-9.103c-2.537,0-5.139,2.324-5.809,5.259c-0.501,2.183,0.25,3.848,1.691,4.667l-0.002-0.015l0.012,0
			c0.089,0.048,0.178,0.09,0.27,0.131l3.983,1.887c0.002,0.002,0.002,0.005,0.002,0.005c0.25,0.139,0.373,0.434,0.287,0.81
			c-0.11,0.487-0.537,0.876-0.959,0.876h-7.333l-1.231,5.399l9.259,0.017c2.774,0,5.621-2.599,6.354-5.809
			C129.224,21.111,128.268,18.93,126.426,18.173"/>
		<g>
			<path fill="#FFFFFF" d="M146.527,35.864c0.079-0.183,0.189-0.343,0.328-0.478c0.138-0.134,0.3-0.24,0.484-0.316
				s0.381-0.113,0.587-0.113c0.208,0,0.402,0.037,0.586,0.113c0.183,0.076,0.343,0.183,0.48,0.316
				c0.137,0.135,0.246,0.295,0.327,0.478c0.08,0.183,0.12,0.381,0.12,0.594c0,0.218-0.04,0.419-0.12,0.604
				c-0.081,0.184-0.19,0.345-0.327,0.479c-0.138,0.136-0.298,0.241-0.48,0.316c-0.184,0.075-0.378,0.114-0.586,0.114
				c-0.206,0-0.402-0.039-0.587-0.114s-0.347-0.181-0.484-0.316c-0.139-0.135-0.249-0.296-0.328-0.479
				c-0.082-0.185-0.122-0.386-0.122-0.604C146.405,36.245,146.445,36.047,146.527,35.864z M146.775,36.972
				c0.062,0.158,0.149,0.294,0.262,0.41c0.111,0.116,0.243,0.208,0.396,0.273s0.317,0.098,0.494,0.098
				c0.175,0,0.338-0.032,0.489-0.098c0.15-0.065,0.281-0.157,0.394-0.273c0.111-0.116,0.199-0.252,0.262-0.41
				c0.063-0.157,0.096-0.327,0.096-0.514c0-0.182-0.032-0.349-0.096-0.505c-0.062-0.156-0.15-0.292-0.262-0.406
				c-0.112-0.114-0.243-0.204-0.394-0.271c-0.151-0.065-0.314-0.099-0.489-0.099c-0.177,0-0.342,0.033-0.494,0.099
				c-0.152,0.066-0.284,0.156-0.396,0.271c-0.112,0.114-0.199,0.25-0.262,0.406c-0.064,0.156-0.096,0.323-0.096,0.505
				C146.68,36.645,146.711,36.814,146.775,36.972z M148.021,35.581c0.209,0,0.365,0.043,0.466,0.125
				c0.102,0.085,0.151,0.211,0.151,0.38c0,0.159-0.044,0.275-0.134,0.35c-0.088,0.073-0.199,0.117-0.33,0.132l0.504,0.778h-0.295
				l-0.479-0.76h-0.291v0.76h-0.274v-1.765H148.021z M147.898,36.364c0.062,0,0.12-0.001,0.177-0.005
				c0.055-0.005,0.104-0.016,0.146-0.035c0.043-0.019,0.077-0.048,0.104-0.087c0.025-0.039,0.038-0.094,0.038-0.164
				c0-0.06-0.012-0.105-0.035-0.141c-0.021-0.034-0.052-0.062-0.088-0.081c-0.037-0.019-0.079-0.031-0.125-0.038
				c-0.048-0.008-0.094-0.011-0.14-0.011h-0.363v0.562H147.898z"/>
		</g>
		<g>
			<path d="M128.39,27.365c0.08-0.184,0.189-0.342,0.329-0.477c0.138-0.134,0.301-0.24,0.484-0.316
				c0.185-0.077,0.38-0.116,0.587-0.116s0.402,0.039,0.585,0.116c0.183,0.076,0.344,0.183,0.48,0.316
				c0.138,0.135,0.246,0.293,0.327,0.477c0.082,0.183,0.122,0.381,0.122,0.593c0,0.218-0.04,0.421-0.122,0.604
				c-0.081,0.185-0.189,0.344-0.327,0.479c-0.137,0.136-0.298,0.242-0.48,0.317s-0.378,0.113-0.585,0.113s-0.402-0.038-0.587-0.113
				c-0.184-0.075-0.347-0.182-0.484-0.317c-0.14-0.136-0.249-0.295-0.329-0.479c-0.081-0.184-0.121-0.387-0.121-0.604
				C128.269,27.746,128.309,27.548,128.39,27.365z M128.638,28.474c0.064,0.156,0.15,0.294,0.263,0.409
				c0.111,0.115,0.243,0.206,0.396,0.272c0.151,0.067,0.316,0.1,0.494,0.1c0.176,0,0.338-0.032,0.488-0.1
				c0.151-0.066,0.283-0.157,0.394-0.272c0.111-0.115,0.2-0.253,0.263-0.409c0.063-0.158,0.095-0.33,0.095-0.516
				c0-0.18-0.031-0.349-0.095-0.505c-0.062-0.155-0.151-0.291-0.263-0.404c-0.11-0.114-0.242-0.205-0.394-0.271
				c-0.15-0.067-0.312-0.101-0.488-0.101c-0.178,0-0.343,0.033-0.494,0.101c-0.152,0.065-0.284,0.156-0.396,0.271
				c-0.112,0.113-0.198,0.249-0.263,0.404c-0.062,0.156-0.096,0.325-0.096,0.505C128.542,28.144,128.575,28.315,128.638,28.474z
				 M129.883,27.083c0.21,0,0.366,0.04,0.467,0.125c0.101,0.083,0.15,0.209,0.15,0.379c0,0.159-0.044,0.275-0.133,0.349
				s-0.199,0.117-0.331,0.132l0.504,0.779h-0.294l-0.48-0.759h-0.29v0.759h-0.274v-1.764H129.883z M129.762,27.865
				c0.062,0,0.121-0.002,0.176-0.006s0.105-0.016,0.147-0.035c0.043-0.018,0.077-0.046,0.103-0.085
				c0.026-0.039,0.039-0.094,0.039-0.164c0-0.06-0.012-0.106-0.034-0.142c-0.023-0.035-0.053-0.062-0.089-0.08
				c-0.037-0.02-0.078-0.031-0.126-0.039c-0.047-0.007-0.093-0.01-0.139-0.01h-0.363v0.561H129.762z"/>
		</g>
	</g>
</g>
</svg>
