<?xml version="1.0" encoding="UTF-8"?>
<!DOCTYPE svg PUBLIC "-//W3C//DTD SVG 1.1//EN" "http://www.w3.org/Graphics/SVG/1.1/DTD/svg11.dtd">
<svg xmlns="http://www.w3.org/2000/svg" xml:space="preserve" width="100%" height="100%" version="1.1" style="shape-rendering:geometricPrecision; text-rendering:geometricPrecision; image-rendering:optimizeQuality; fill-rule:evenodd; clip-rule:evenodd" viewBox="0 0 16000 5500" xmlns:xlink="http://www.w3.org/1999/xlink">
	<path fill="#304191" d="M0 3400l0 2100 5500 0 0 -2100 -5500 0zm1138 1685l-646 0 0 -66 646 0 0 66zm0 -117l-646 0 0 -72 646 0 0 72zm0 -123l-646 0 0 -72 646 0 0 72zm0 -123l-646 0 0 -72 646 0 0 72zm0 -123l-646 0 0 -410 0 -397 646 0 545 0 0 397 -545 0 0 410zm1346 485l-1246 0 37 -66 739 0 -26 -51 -685 0 40 -72 608 0 -26 -51 -553 0 40 -72 477 0 -26 -51 -422 0 40 -72 346 0 -26 -51 -291 0 502 -905 475 822 0 568zm769 0l-441 0 -276 0 -2 0 0 -70 0 4 719 0 0 66zm0 -117l-719 0 0 -72 719 0 0 72zm0 -123l-719 0 0 -72 719 0 0 72zm0 -123l-719 0 0 -72 719 0 0 72zm0 -124l0 1 -717 0 0 -807 895 0c176,0 295,84 357,198 74,156 42,367 -49,483 0,-1 0,-2 0,-3 -68,77 -171,128 -308,128 0,0 -154,1 -178,0zm1152 496c-111,0 -215,-27 -307,-76l614 0c-92,48 -196,76 -307,76zm389 -127l-778 0c-30,-22 -57,-45 -83,-72l945 0c-26,26 -54,50 -83,72zm129 -123l-1036 0c-18,-23 -35,-47 -50,-72l1136 0c-15,25 -32,49 -50,72zm78 -123l-1192 0c-12,-23 -22,-47 -31,-72l1254 0c-9,25 -19,48 -31,72zm47 -123l-1286 0c-6,-22 -11,-44 -15,-67 110,-116 167,-317 106,-496 120,-178 322,-296 551,-296 369,0 668,303 668,677 0,63 -9,124 -25,182z"/>
	<path fill="#E31E24" d="M0 0l0 3000 5500 0 0 -3000 -5500 0zm4643 1089l-1331 0 0 179 1331 0 0 455 -1332 0 0 248c0,160 213,160 213,0l0 -45 520 0c0,870 -1266,870 -1266,0l0 -203 -454 0 0 203c0,870 -1266,870 -1266,0l520 0 0 45c0,160 213,160 213,0l0 -248 -958 0 0 -455 958 0 0 -179 -503 0 0 -126 220 -323 815 0 0 628 446 0 0 -179 0 -449 542 0 1331 0 0 449z"/>
	<path fill="#304191" fill-rule="nonzero" d="M6486 1094l0 -1029 645 0 0 281 -275 0 0 748 -370 0zm1122 -302l0 302 -370 0 0 -1029 459 0c143,0 250,29 322,88 72,59 108,154 108,285 0,99 -38,183 -114,252 -76,68 -180,102 -314,102l-92 0zm2 -268l89 0c52,0 78,-28 78,-84 0,-57 -28,-86 -84,-86l-83 0 0 170zm1113 -78l168 -381 419 0 -543 1029 -421 0 138 -264 -302 -765 419 0 121 381zm656 648l0 -1029 965 0 0 1029 -370 0 0 -748 -225 0 0 748 -370 0zm1076 0l0 -1029 965 0 0 1029 -370 0 0 -748 -225 0 0 748 -370 0zm997 0l364 -1029 411 0 360 1029 -398 0 -32 -130 -278 0 -33 130 -394 0zm641 -375l-73 -341 -8 0 -73 341 154 0zm-5612 2191l0 -1029 364 0 0 440 233 -440 419 0 -311 508 354 521 -448 0 -248 -430 0 430 -364 0zm1676 -1051c78,0 151,14 217,42 66,28 124,66 174,115 50,49 89,106 117,173 29,67 43,136 43,208 0,97 -25,187 -74,270 -49,83 -116,148 -202,196 -85,48 -177,72 -275,72 -98,0 -190,-24 -275,-72 -85,-48 -152,-114 -202,-196 -49,-83 -74,-173 -74,-270 0,-72 14,-141 43,-207 29,-66 68,-124 118,-174 50,-50 108,-88 175,-116 66,-28 138,-41 215,-41zm0 346c-48,0 -89,19 -124,57 -35,38 -52,84 -52,138 0,54 17,100 52,138 35,38 76,57 124,57 48,0 89,-19 124,-56 35,-38 52,-84 52,-139 0,-55 -17,-101 -52,-139 -35,-38 -76,-56 -124,-56zm1559 110l-46 200 -116 395 -222 0 -116 -395 -48 -200 -16 189 -43 406 -364 0 176 -1029 381 0 146 522 148 -522 381 0 162 1029 -362 0 -44 -406 -17 -189zm486 595l0 -1029 965 0 0 1029 -370 0 0 -748 -225 0 0 748 -370 0zm997 0l364 -1029 411 0 360 1029 -398 0 -32 -130 -278 0 -33 130 -394 0zm641 -375l-73 -341 -8 0 -73 341 154 0zm551 375l0 -1029 370 0 0 344 225 0 0 -344 370 0 0 1029 -370 0 0 -362 -225 0 0 362 -370 0zm1075 0l0 -1029 370 0 0 551 225 -551 370 0 0 1029 -370 0 0 -516 -225 516 -370 0zm1545 -1110c-69,0 -133,-19 -192,-56 -59,-37 -89,-95 -89,-173l187 0c0,66 32,98 95,98 62,0 94,-33 94,-98l187 0c0,79 -30,137 -89,174 -59,37 -124,55 -194,55zm-476 1110l0 -1029 370 0 0 551 225 -551 370 0 0 1029 -370 0 0 -516 -225 516 -370 0z"/>
	<path fill="#E31E24" fill-rule="nonzero" d="M6481 5455l0 -1715 1074 0 0 468 -458 0 0 1246 -616 0zm1109 0l606 -1715 685 0 601 1715 -664 0 -53 -217 -463 0 -56 217 -656 0zm1069 -624l-122 -569 -13 0 -122 569 257 0zm1540 122l0 503 -616 0 0 -1715 765 0c238,0 417,49 537,147 120,98 180,256 180,475 0,166 -63,306 -189,419 -126,114 -300,171 -523,171l-153 0zm3 -447l148 0c86,0 130,-47 130,-140 0,-95 -47,-143 -140,-143l-138 0 0 283zm1902 -802c131,0 251,23 361,70 110,47 207,111 290,192 83,81 148,177 196,288 48,111 71,227 71,347 0,162 -41,312 -123,450 -82,138 -194,247 -336,327 -142,80 -295,120 -459,120 -164,0 -317,-40 -459,-120 -142,-80 -254,-189 -336,-327 -82,-138 -123,-288 -123,-450 0,-120 24,-235 71,-345 48,-110 113,-207 197,-290 84,-83 181,-147 291,-193 110,-46 230,-69 359,-69zm0 577c-79,0 -148,32 -206,95 -58,64 -87,140 -87,230 0,90 29,167 87,230 58,64 127,95 206,95 79,0 148,-31 206,-94 58,-63 87,-140 87,-232 0,-92 -29,-169 -87,-232 -58,-63 -127,-94 -206,-94z"/>
</svg>