<?xml version="1.0" encoding="iso-8859-1"?>
<!-- Generator: Adobe Illustrator 15.0.2, SVG Export Plug-In . SVG Version: 6.00 Build 0)  -->
<!DOCTYPE svg PUBLIC "-//W3C//DTD SVG 1.1//EN" "http://www.w3.org/Graphics/SVG/1.1/DTD/svg11.dtd">
<svg version="1.1" id="_x31_" xmlns="http://www.w3.org/2000/svg" xmlns:xlink="http://www.w3.org/1999/xlink" x="0px" y="0px"
	 width="515.301px" height="118.201px" viewBox="0 0 515.301 118.201" style="enable-background:new 0 0 515.301 118.201;"
	 xml:space="preserve">
<g>
	<circle style="fill:#E3001F;" cx="429.773" cy="21.756" r="15.714"/>
	<path style="fill:#004799;" d="M345.677,92.479h18.116c0.387,0,0.81-0.121,1.101-0.383l43.202-50.5
		c0.351-0.411,0.712-0.736,0.712-0.991c0-0.409-0.345-0.613-1.038-0.613h-13.327c-0.388,0-0.819,0.092-1.102,0.383L364.08,74.04
		l-14.508-33.665c-0.216-0.255-0.476-0.382-0.779-0.382H323.57c-1.04,0-1.561,0.383-1.561,1.148c0,0.101,6.315,16.309,22.887,50.956
		C345.021,92.354,345.287,92.479,345.677,92.479z"/>
	<path style="fill:#004799;" d="M243.475,92.479c17.959,0,27.452-3.943,27.452-17.648c0-4.825-2.58-10.079-7.745-15.765
		l-20.796-23.09l48.839-0.002c1.012,0,1.665-0.402,2.001-1.196l3.51-9.639c0.046-0.127,0.085-0.198,0.085-0.397
		c0-0.595-0.364-0.892-1.097-0.892h-56.122c-15.683,0-29.915,0-29.973,19.79c-0.014,4.426,2.021,10.304,6.061,14.534l21.051,22.604
		H190.68c-1.011,0-1.684,0.431-2.021,1.291l-3.332,9.156c-0.066,0.187-0.112,0.306-0.146,0.396c0,0.595,0.388,0.856,1.178,0.856
		h57.115V92.479z"/>
	<path style="fill:#004799;" d="M297.3,92.479c0.735,0,1.231-0.33,1.492-0.992c2.825-7.777,17.428-47.914,18.421-50.622
		c0.153-0.444-0.221-0.872-0.741-0.872l-23.471,0.001c-0.726,0-1.273,0.38-1.491,0.994c-1.505,4.123-18.271,50.134-18.499,50.814
		c-0.072,0.494,0.293,0.678,0.854,0.678H297.3z"/>
	<path style="fill:#004799;" d="M417.148,92.479c0.733,0,1.231-0.33,1.492-0.992c2.825-7.777,17.426-47.914,18.419-50.622
		c0.156-0.444-0.22-0.872-0.739-0.872l-23.473,0.001c-0.724,0-1.271,0.38-1.492,0.994c-1.506,4.123-18.267,50.134-18.499,50.814
		c-0.071,0.494,0.294,0.678,0.856,0.678H417.148z"/>
	<path style="fill:#004799;" d="M450.563,92.479h-23.622c-0.562,0-0.862-0.354-0.799-0.724c0.585-1.603,20.304-55.78,29.059-79.843
		c0.239-0.675,0.761-0.993,1.495-0.993l23.636-0.001c0.522,0,0.782,0.229,0.782,0.688c-1.003,2.733-14.055,38.591-16.952,46.553
		l33.621-17.938c0.261-0.151,0.521-0.228,0.776-0.228h15.701c0.692,0,1.04,0.203,1.04,0.612c0,0.405-0.325,0.789-0.976,1.146
		L482.05,59.507c12.28,21.342,18.398,31.676,18.398,31.827c0,0.765-0.52,1.146-1.555,1.146h-24.782c-0.391,0-0.65-0.125-0.779-0.381
		l-12.996-23.431c-2.315,6.362-5.915,16.255-8.279,22.819C451.768,92.213,451.385,92.479,450.563,92.479z"/>
	<path style="fill:#004799;" d="M191.913,99.212c-3.222,0.001-6.376,0.002-9.531,0.003c-1.546,4.25-3.61,9.919-4.64,12.748
		c3.121,0,6.406,0,9.529,0c0.291-0.799,0.845-2.317,1.112-3.056c-1.847,0-3.755-0.001-5.668,0c0.157-0.446,0.569-1.566,0.75-2.062
		c1.511-0.001,3.222,0,4.5,0c0.17-0.469,0.666-1.828,0.993-2.729c-1.478,0-2.955-0.002-4.5-0.002
		c0.229-0.621,0.561-1.535,0.701-1.922c1.912,0,3.725,0,5.638,0C191.167,101.209,191.538,100.228,191.913,99.212z"/>
	<path style="fill:#004799;" d="M193.693,99.211c-0.81,2.142-1.617,4.274-2.391,6.399s-1.481,4.244-2.25,6.353
		c1.074,0,2.052,0,3.093,0c0.337-0.989,0.741-1.973,1.078-2.957c0.38-1.049,1.262-3.474,1.694-4.659
		c0.248,1.031,0.745,3.092,1.015,4.215c0.271,1.129,0.543,2.266,0.812,3.401c1.073,0,2.174,0,3.28,0
		c0.737-2.024,1.575-4.317,2.346-6.442c0.772-2.125,1.533-4.217,2.297-6.311c-1.006-0.001-2.082,0.002-3.155,0.002
		c-0.659,1.814-1.761,4.839-2.466,6.775c-0.276-1.149-0.533-2.188-0.769-3.191c-0.251-1.08-0.5-2.15-0.86-3.584
		C196.143,99.211,194.9,99.212,193.693,99.211z"/>
	<path style="fill:#004799;" d="M216.25,103.458c0.165-0.646,0.186-1.238,0.097-1.787c-0.118-0.572-0.296-1.018-0.524-1.374
		c-0.425-0.552-0.957-0.91-1.559-1.069c-0.602-0.18-1.226-0.252-1.798-0.23c-0.634-0.021-1.396,0.086-2.238,0.266
		c-0.845,0.2-1.736,0.623-2.642,1.27c-1.071,0.802-1.943,1.785-2.623,2.962c-0.357,0.596-0.683,1.194-0.906,1.804
		c-0.227,0.609-0.389,1.236-0.521,1.885c-0.142,0.529-0.198,1.133-0.152,1.725c0.034,0.646,0.215,1.238,0.568,1.811
		c0.447,0.592,0.944,0.963,1.571,1.164c0.567,0.188,1.165,0.219,1.737,0.219c0.399,0,0.771,0,1.186-0.061
		c0.388-0.074,0.786-0.232,1.232-0.443c0.3-0.148,0.568-0.308,0.769-0.466c0.234-0.159,0.438-0.339,0.61-0.521c0,0,0.032,0,0.066,0
		c0.004,0.466,0.015,0.91,0.057,1.354c0.64,0,1.276,0,1.948,0c0.445-1.218,1.901-5.217,2.607-7.151c-1.945-0.002-3.888,0-5.803,0
		c-0.354,0.908-0.693,1.873-1.01,2.771c0.706-0.001,1.412,0,2.117,0c-0.082,0.231-0.205,0.497-0.38,0.699
		c-0.178,0.211-0.349,0.391-0.55,0.55c-0.227,0.127-0.452,0.255-0.708,0.338c-0.25,0.074-0.488,0.098-0.69,0.098
		c-0.334-0.002-0.561-0.043-0.733-0.181c-0.179-0.106-0.293-0.2-0.368-0.34c-0.129-0.201-0.173-0.465-0.182-0.751
		c0.025-0.285,0.049-0.572,0.104-0.824c0.022-0.127,0.12-0.433,0.222-0.93c0.136-0.488,0.351-1.059,0.603-1.629
		c0.266-0.625,0.583-1.196,0.987-1.693c0.353-0.413,0.715-0.697,1.055-0.889c0.332-0.146,0.653-0.232,0.921-0.232
		c0.303-0.001,0.526,0.053,0.671,0.159c0.144,0.124,0.256,0.231,0.292,0.392c0.097,0.178,0.115,0.412,0.093,0.697
		c0.007,0.285-0.013,0.551-0.1,0.805C213.575,103.724,214.913,103.595,216.25,103.458z"/>
	<path style="fill:#004799;" d="M223.683,99.204c-1.31,0.002-2.654,0.002-3.962,0.002c-0.763,2.098-1.535,4.305-2.34,6.432
		c-0.805,2.123-1.643,4.504-2.303,6.325c1.308,0,2.615,0,3.96,0C220.208,108.751,222.324,102.938,223.683,99.204z"/>
	<path style="fill:#004799;" d="M279.012,99.204c-1.308,0.002-2.652,0.002-3.962,0.002c-0.764,2.098-1.537,4.305-2.342,6.432
		c-0.802,2.123-1.639,4.504-2.303,6.325c1.312,0,2.621,0,3.964,0C275.538,108.751,277.652,102.938,279.012,99.204z"/>
	<path style="fill:#004799;" d="M225.982,99.204c-0.737,2.029-1.56,4.273-2.327,6.398c-0.772,2.123-1.549,4.25-2.317,6.359
		c1.076,0,2,0,3.073,0c0.821-2.256,1.905-5.234,2.771-7.611c0.611,2.545,1.216,5.065,1.828,7.611c1.076,0,2.194,0,3.301,0
		c1.414-3.883,3.734-10.256,4.646-12.76c-1.04,0-2.113,0-3.188,0c-0.588,1.609-1.646,4.521-2.48,6.818
		c-0.545-2.226-1.102-4.543-1.646-6.815C228.398,99.204,227.155,99.206,225.982,99.204z"/>
	<path style="fill:#004799;" d="M281.161,99.204c-0.737,2.029-1.561,4.273-2.327,6.398c-0.771,2.123-1.549,4.25-2.315,6.359
		c1.073,0,1.996,0,3.07,0c0.822-2.256,1.908-5.234,2.771-7.611c0.611,2.545,1.216,5.065,1.828,7.611c1.075,0,2.193,0,3.304,0
		c1.414-3.883,3.73-10.256,4.646-12.76c-1.04,0-2.116,0-3.191,0c-0.583,1.609-1.644,4.521-2.48,6.818
		c-0.545-2.226-1.099-4.543-1.646-6.815C283.576,99.204,282.334,99.206,281.161,99.204z"/>
	<path style="fill:#004799;" d="M248.907,99.188c-3.291,0-6.481,0.015-9.702,0.016c-1.515,4.154-3.164,8.697-4.646,12.76
		c3.223,0,6.407,0,9.697,0c0.376-1.031,0.735-2.029,1.111-3.057c-1.982,0.001-3.818-0.004-5.766-0.004
		c0.231-0.635,0.521-1.426,0.751-2.057c1.247-0.006,3.087,0,4.632,0c0.262-0.723,0.677-1.853,0.993-2.729
		c-1.516-0.002-3.208,0.001-4.631,0c0.229-0.636,0.486-1.343,0.7-1.923c1.537,0,3.819,0,5.763,0
		C248.184,101.198,248.531,100.206,248.907,99.188z"/>
	<path style="fill:#004799;" d="M260.373,99.188c-3.289,0-6.481,0.015-9.7,0.016c-1.515,4.154-3.166,8.697-4.647,12.76
		c3.224,0,6.408,0,9.698,0c0.376-1.031,0.736-2.029,1.112-3.057c-1.979,0.001-3.816-0.004-5.764-0.004
		c0.23-0.635,0.516-1.426,0.748-2.057c1.249-0.006,3.09,0,4.633,0c0.262-0.723,0.674-1.853,0.992-2.729
		c-1.515-0.002-3.208,0.001-4.631,0c0.229-0.636,0.487-1.343,0.699-1.923c1.539,0,3.821,0,5.768,0
		C259.65,101.198,259.999,100.206,260.373,99.188z"/>
	<path style="fill:#004799;" d="M265.09,101.969c0.436,0,0.87,0,1.374,0c0.169,0,0.338,0,0.527,0.041
		c0.196,0.032,0.354,0.085,0.474,0.159c0.123,0.053,0.203,0.159,0.305,0.318c0.069,0.147,0.093,0.359,0.036,0.646
		c-0.043,0.212-0.114,0.392-0.218,0.571c-0.138,0.181-0.303,0.339-0.459,0.445c-0.194,0.125-0.41,0.199-0.664,0.285
		c-0.244,0.053-0.518,0.074-0.817,0.074c-0.539-0.001-1.048,0-1.482,0C264.363,103.958,264.916,102.438,265.09,101.969
		L265.09,101.969z M262.205,99.153c-0.817,2.173-1.585,4.356-2.36,6.488c-0.77,2.111-1.532,4.193-2.301,6.32c1.31,0,2.597,0,3.905,0
		c0.423-1.15,1.334-3.66,1.701-4.67c0.438,0,0.924,0,1.425,0c0.021,0.727,0.04,1.57,0.062,2.348c0.02,0.73,0.044,1.614,0.059,2.322
		c1.312,0,2.623,0,3.964,0c-0.065-0.958-0.121-1.839-0.178-2.697c-0.062-0.896-0.112-1.684-0.179-2.648
		c0.323-0.107,0.657-0.266,1.002-0.467c0.345-0.213,0.688-0.412,0.978-0.678c0.376-0.361,0.696-0.785,0.925-1.25
		c0.271-0.498,0.479-1.016,0.586-1.556c0.091-0.604,0.089-1.09,0-1.481c-0.12-0.395-0.26-0.697-0.446-0.941
		c-0.437-0.487-1.012-0.805-1.654-0.932c-0.647-0.127-1.206-0.182-1.68-0.158C266.098,99.153,264.118,99.153,262.205,99.153
		L262.205,99.153z"/>
	<path style="fill:#004799;" d="M469.652,101.969c0.438,0,0.875,0,1.378,0c0.169,0,0.334,0,0.527,0.041
		c0.195,0.032,0.352,0.085,0.472,0.159c0.123,0.053,0.201,0.159,0.306,0.318c0.07,0.147,0.095,0.359,0.037,0.646
		c-0.047,0.212-0.115,0.392-0.22,0.571c-0.136,0.181-0.305,0.339-0.457,0.445c-0.194,0.125-0.414,0.199-0.665,0.285
		c-0.243,0.053-0.516,0.074-0.822,0.074c-0.533-0.001-1.044,0-1.48,0C468.93,103.958,469.483,102.438,469.652,101.969
		L469.652,101.969z M466.771,99.153c-0.817,2.173-1.589,4.356-2.362,6.488c-0.771,2.111-1.529,4.193-2.303,6.32
		c1.31,0,2.601,0,3.909,0c0.42-1.15,1.333-3.66,1.701-4.67c0.437,0,0.919,0,1.424,0c0.02,0.727,0.04,1.57,0.062,2.348
		c0.021,0.73,0.04,1.614,0.062,2.322c1.308,0,2.62,0,3.962,0c-0.065-0.958-0.122-1.839-0.178-2.697
		c-0.062-0.896-0.113-1.684-0.178-2.648c0.323-0.107,0.656-0.266,0.999-0.467c0.348-0.213,0.689-0.412,0.979-0.678
		c0.376-0.361,0.697-0.785,0.924-1.25c0.27-0.498,0.476-1.016,0.587-1.556c0.091-0.604,0.087-1.09,0-1.481
		c-0.124-0.395-0.26-0.697-0.445-0.941c-0.438-0.487-1.013-0.805-1.658-0.932s-1.207-0.182-1.678-0.158
		C470.661,99.153,468.682,99.153,466.771,99.153L466.771,99.153z"/>
	<path style="fill:#004799;" d="M345.441,101.969c0.438,0,0.873,0,1.376,0c0.167,0,0.337,0,0.528,0.041
		c0.196,0.032,0.354,0.085,0.474,0.159c0.123,0.053,0.203,0.159,0.302,0.318c0.072,0.147,0.095,0.359,0.036,0.646
		c-0.04,0.212-0.111,0.392-0.214,0.571c-0.139,0.181-0.306,0.339-0.463,0.445c-0.191,0.125-0.409,0.199-0.661,0.285
		c-0.247,0.053-0.52,0.074-0.82,0.074c-0.535-0.001-1.046,0-1.481,0C344.719,103.958,345.271,102.438,345.441,101.969
		L345.441,101.969z M342.558,99.153c-0.818,2.173-1.585,4.356-2.361,6.488c-0.769,2.111-1.53,4.193-2.299,6.32
		c1.309,0,2.595,0,3.905,0c0.419-1.15,1.333-3.66,1.701-4.67c0.436,0,0.921,0,1.426,0c0.02,0.727,0.039,1.57,0.062,2.348
		c0.02,0.73,0.042,1.614,0.06,2.322c1.311,0,2.62,0,3.962,0c-0.064-0.958-0.12-1.839-0.181-2.697
		c-0.057-0.896-0.108-1.684-0.177-2.648c0.327-0.107,0.661-0.266,1.004-0.467c0.346-0.213,0.688-0.412,0.979-0.678
		c0.377-0.361,0.692-0.785,0.924-1.25c0.269-0.498,0.476-1.016,0.586-1.556c0.088-0.604,0.088-1.09,0-1.481
		c-0.123-0.395-0.263-0.697-0.448-0.941c-0.438-0.487-1.013-0.805-1.653-0.932c-0.646-0.127-1.207-0.182-1.682-0.158
		C346.449,99.153,344.472,99.153,342.558,99.153L342.558,99.153z"/>
	<path style="fill:#004799;" d="M303.999,103.413c0.133-0.646,0.151-1.251,0.062-1.789c-0.087-0.572-0.265-1.018-0.559-1.387
		c-0.396-0.541-0.928-0.901-1.532-1.061c-0.634-0.179-1.221-0.264-1.832-0.23c-0.63-0.033-1.358,0.076-2.197,0.254
		c-0.85,0.211-1.736,0.626-2.68,1.283c-1.069,0.803-1.94,1.787-2.646,2.953c-0.355,0.598-0.647,1.205-0.871,1.819
		c-0.227,0.614-0.421,1.24-0.551,1.875c-0.108,0.552-0.164,1.134-0.119,1.759c0.002,0.646,0.216,1.252,0.567,1.822
		c0.419,0.594,0.949,0.964,1.545,1.166c0.634,0.188,1.272,0.25,1.811,0.25c0.404-0.001,0.765-0.031,1.145-0.092
		c0.387-0.074,0.82-0.232,1.268-0.445c0.266-0.148,0.531-0.308,0.767-0.467c0.232-0.159,0.438-0.338,0.606-0.52c0,0,0.035,0,0.068,0
		c0.005,0.467,0.023,0.864,0.061,1.356c0.641,0,1.324,0,1.966,0c0.658-1.812,1.925-5.291,2.604-7.151c-1.981-0.002-4.585,0-5.842,0
		c-0.358,0.942-0.692,1.861-1.01,2.771c0.705-0.001,1.42,0,2.126,0c-0.083,0.231-0.222,0.45-0.363,0.662
		c-0.182,0.231-0.354,0.413-0.588,0.571c-0.192,0.127-0.421,0.254-0.672,0.338c-0.252,0.074-0.49,0.097-0.691,0.097
		c-0.336-0.001-0.563-0.042-0.736-0.181c-0.181-0.105-0.291-0.2-0.367-0.338c-0.118-0.233-0.201-0.487-0.182-0.765
		c-0.008-0.284,0.05-0.571,0.103-0.837c0.024-0.127,0.092-0.441,0.22-0.91c0.132-0.488,0.35-1.06,0.604-1.662
		c0.227-0.625,0.577-1.195,0.979-1.695c0.355-0.413,0.682-0.697,1.021-0.879c0.336-0.159,0.649-0.231,0.953-0.231
		c0.302,0,0.491,0.052,0.674,0.157c0.14,0.127,0.22,0.232,0.292,0.382c0.061,0.188,0.124,0.442,0.099,0.729
		c0.009,0.284-0.053,0.521-0.104,0.784C301.294,103.678,302.632,103.542,303.999,103.413z"/>
	<path style="fill:#004799;" d="M314.285,109.009c-0.266,0.158-0.512,0.242-0.763,0.307c-0.241,0.062-0.486,0.086-0.685,0.086
		c-0.167,0-0.332-0.027-0.52-0.086c-0.219-0.067-0.397-0.166-0.558-0.379c-0.202-0.271-0.207-0.64-0.141-0.961
		c0.04-0.209,0.114-0.424,0.219-0.59c0.202-0.33,0.521-0.564,0.854-0.748c0.133-0.074,0.258-0.127,0.365-0.158
		C313.455,107.313,313.863,108.173,314.285,109.009L314.285,109.009z M315.152,103.397c-0.102-0.144-0.238-0.359-0.294-0.524
		c-0.086-0.261-0.101-0.485-0.05-0.749c0.027-0.129,0.082-0.27,0.182-0.391c0.24-0.297,0.521-0.496,0.935-0.496
		c0.201,0,0.425,0.098,0.577,0.285c0.16,0.197,0.129,0.445,0.087,0.664c-0.034,0.157-0.108,0.338-0.215,0.475
		c-0.115,0.148-0.218,0.229-0.371,0.338C315.734,103.188,315.461,103.287,315.152,103.397L315.152,103.397L315.152,103.397z
		 M318.814,104.621c-0.158,0.284-0.304,0.519-0.443,0.718c-0.146,0.232-0.32,0.422-0.534,0.653c-0.293,0.333-0.561,0.657-0.895,0.95
		c-0.285-0.568-0.57-1.14-0.857-1.709c0.628-0.207,1.226-0.478,1.75-0.875c0.354-0.265,0.647-0.569,0.928-0.959
		c0.312-0.401,0.501-0.834,0.603-1.33c0.078-0.391,0.091-0.779,0.014-1.223c-0.08-0.432-0.334-0.822-0.764-1.18
		c-0.349-0.266-0.75-0.422-1.165-0.527c-0.414-0.095-0.87-0.146-1.371-0.146c-0.333-0.001-0.712,0.053-1.162,0.127
		c-0.449,0.072-0.954,0.263-1.48,0.549c-0.579,0.378-1.029,0.801-1.283,1.232c-0.289,0.442-0.438,0.853-0.509,1.19
		c-0.074,0.369-0.091,0.771-0.032,1.149c0.049,0.422,0.169,0.812,0.389,1.224c-0.389,0.104-0.818,0.252-1.23,0.463
		c-0.371,0.181-0.75,0.412-1.105,0.677c-0.516,0.412-0.943,0.851-1.233,1.317c-0.307,0.491-0.443,0.952-0.553,1.413
		c-0.104,0.415-0.108,0.854-0.012,1.372c0.103,0.493,0.37,0.979,0.815,1.423c0.389,0.389,0.835,0.652,1.374,0.803
		c0.505,0.157,1.068,0.164,1.669,0.164c0.67,0,1.311-0.029,1.984-0.219c0.639-0.18,1.233-0.484,1.747-0.875
		c0.345,0.443,0.683,0.749,1.124,0.875c0.441,0.139,0.828,0.212,1.2,0.189c0.232-0.002,0.501,0,0.777-0.053
		c0.274-0.033,0.457-0.127,0.597-0.16c0.31-0.84,0.599-1.635,0.908-2.488c-0.135,0-0.274,0.033-0.407,0.033
		c-0.385,0-0.778,0.041-1.151-0.086c-0.122-0.053-0.239-0.147-0.272-0.306c0.15-0.073,0.389-0.264,0.746-0.549
		c0.319-0.254,0.687-0.591,1.033-0.981c0.209-0.211,0.469-0.506,0.746-0.895c0.284-0.413,0.569-0.824,0.833-1.299
		C320.657,105.084,319.736,104.854,318.814,104.621L318.814,104.621z"/>
	<path style="fill:#004799;" d="M333.019,101.969c0.502,0,1.026,0,1.531,0c0.169,0,0.398-0.007,0.527,0.017
		c0.165,0.021,0.283,0.105,0.359,0.162c0.082,0.084,0.169,0.16,0.209,0.285c0.043,0.129,0.069,0.316,0.025,0.553
		c-0.051,0.234-0.179,0.451-0.303,0.646c-0.119,0.195-0.275,0.329-0.461,0.465c-0.131,0.098-0.308,0.17-0.518,0.234
		c-0.224,0.082-0.481,0.137-0.792,0.179c-0.503,0-1.002,0-1.505,0C332.398,103.663,332.712,102.827,333.019,101.969L333.019,101.969
		z M330.138,99.129c-0.801,2.146-1.585,4.327-2.354,6.464c-0.765,2.135-1.551,4.234-2.314,6.37c1.31,0,2.57,0,3.913,0
		c0.229-0.624,0.572-1.573,0.859-2.36c0.283-0.787,0.55-1.517,0.833-2.305c0.543-0.005,1.075,0,1.614,0
		c0.688,0.003,1.344-0.021,2.07-0.127c0.73-0.128,1.457-0.395,2.188-0.857c0.729-0.457,1.35-1.028,1.824-1.717
		c0.463-0.646,0.769-1.326,0.946-2.035c0.091-0.617,0.096-1.145-0.051-1.578c-0.146-0.446-0.348-0.784-0.663-1.049
		c-0.368-0.328-0.83-0.541-1.348-0.646c-0.543-0.128-1.046-0.154-1.578-0.159C334.101,99.129,332.116,99.129,330.138,99.129
		L330.138,99.129z"/>
	<path style="fill:#004799;" d="M359.862,101.774c0.199,0,0.425,0.041,0.611,0.106c0.188,0.069,0.338,0.237,0.442,0.442
		c0.11,0.217,0.196,0.441,0.196,0.674c0.005,0.253-0.029,0.482-0.078,0.725c-0.082,0.41-0.237,0.952-0.454,1.598
		c-0.207,0.628-0.485,1.264-0.775,1.884c-0.293,0.619-0.618,1.083-0.957,1.45c-0.215,0.231-0.476,0.382-0.697,0.486
		c-0.219,0.104-0.492,0.125-0.758,0.125c-0.332,0-0.615-0.078-0.818-0.229c-0.2-0.152-0.353-0.382-0.436-0.665
		c-0.056-0.189-0.058-0.367-0.056-0.547c0.003-0.178,0.04-0.356,0.069-0.516c0.08-0.41,0.241-0.939,0.455-1.599
		c0.216-0.657,0.476-1.283,0.784-1.913c0.309-0.629,0.694-1.136,1.061-1.472c0.287-0.265,0.543-0.394,0.793-0.462
		C359.454,101.806,359.658,101.776,359.862,101.774L359.862,101.774z M360.721,98.992c-0.833,0-1.653,0.104-2.396,0.337
		c-0.781,0.23-1.562,0.652-2.38,1.242c-1.104,0.851-1.967,1.828-2.517,2.91c-0.557,1.112-0.98,2.304-1.146,3.207
		c-0.164,0.902-0.197,1.492-0.125,2.112c0.077,0.622,0.264,1.188,0.568,1.651c0.409,0.62,0.884,1.062,1.499,1.324
		c0.614,0.254,1.333,0.313,2.101,0.313c1.1,0,2.024-0.135,2.854-0.45c0.797-0.305,1.474-0.692,2.021-1.104
		c0.517-0.422,0.921-0.778,1.183-1.084c0.634-0.674,1.16-1.475,1.615-2.408c0.412-0.904,0.724-1.777,0.893-2.63
		c0.194-0.957,0.199-1.808,0.038-2.501c-0.154-0.727-0.406-1.294-0.788-1.702c-0.469-0.496-1.033-0.832-1.636-0.989
		C361.909,99.044,361.32,98.993,360.721,98.992L360.721,98.992z"/>
	<path style="fill:#004799;" d="M371.666,101.908c0.304,0,0.604,0,0.94,0c0.182,0,0.528,0.038,0.784,0.104
		c0.224,0.06,0.44,0.151,0.587,0.254c0.208,0.151,0.33,0.394,0.423,0.733c0.103,0.369,0.103,0.838-0.019,1.431
		c-0.074,0.371-0.195,0.807-0.396,1.307c-0.2,0.496-0.398,0.986-0.661,1.449c-0.296,0.479-0.567,0.84-0.861,1.125
		c-0.369,0.34-0.716,0.555-1.098,0.629c-0.393,0.105-0.797,0.127-1.169,0.127c-0.402,0-0.769,0-1.137,0
		C369.773,107.11,370.806,104.265,371.666,101.908L371.666,101.908z M368.785,99.153c-1.559,4.289-3.102,8.521-4.658,12.81
		c1.877,0,3.741,0,5.626,0c0.665,0.021,1.45-0.053,2.321-0.212c0.877-0.18,1.768-0.595,2.671-1.253
		c0.638-0.487,1.187-1.062,1.663-1.771c0.473-0.67,0.849-1.381,1.165-2.133c0.314-0.732,0.523-1.433,0.661-2.111
		c0.23-1.166,0.22-2.11-0.009-2.811c-0.196-0.699-0.501-1.195-0.873-1.504c-0.596-0.553-1.34-0.855-2.19-0.964
		c-0.815-0.104-1.597-0.052-2.349-0.052C371.473,99.153,370.131,99.153,368.785,99.153L368.785,99.153z"/>
	<path style="fill:#004799;" d="M385.907,99.153c-1.331,0.002-2.631,0.003-3.929,0.003c-0.504,1.354-0.986,2.713-1.458,3.964
		c-0.496,1.306-0.963,2.639-1.428,3.959c-0.083,0.238-0.184,0.505-0.246,0.732c-0.062,0.209-0.12,0.434-0.162,0.636
		c-0.146,0.728-0.146,1.323,0.073,1.812c0.219,0.49,0.59,0.896,1.026,1.188c0.441,0.297,0.936,0.487,1.45,0.569
		c0.519,0.082,1.05,0.08,1.551,0.08c0.633,0,1.271,0.006,1.921-0.113c0.629-0.113,1.285-0.377,1.92-0.769
		c0.694-0.43,1.266-0.93,1.665-1.504c0.393-0.562,0.714-1.153,0.952-1.76c0.232-0.585,0.428-1.138,0.599-1.651
		c0.403-1.189,0.877-2.384,1.28-3.574c0.406-1.19,0.875-2.383,1.312-3.572c-1.031,0-2.062,0-3.128,0
		c-0.501,1.32-0.995,2.638-1.458,3.947c-0.461,1.312-0.966,2.617-1.42,3.926c-0.169,0.488-0.396,1.101-0.729,1.494
		c-0.266,0.313-0.536,0.518-0.823,0.623c-0.287,0.104-0.562,0.127-0.826,0.127c-0.198-0.002-0.396-0.021-0.617-0.074
		c-0.376-0.09-0.693-0.473-0.697-0.854c0-0.159,0.004-0.292,0.04-0.448c0.045-0.209,0.129-0.492,0.205-0.691
		c0.082-0.24,0.174-0.473,0.265-0.721c0.441-1.211,0.886-2.426,1.329-3.646C385.017,101.617,385.461,100.394,385.907,99.153z"/>
	<path style="fill:#004799;" d="M403.663,103.954c0.146-0.737,0.152-1.434,0.025-2.137c-0.127-0.695-0.381-1.262-0.757-1.705
		c-0.211-0.283-0.594-0.535-1.082-0.768c-0.521-0.211-1.196-0.337-2.054-0.367c-1.074,0.031-2.073,0.211-2.988,0.621
		c-0.913,0.41-1.728,0.979-2.438,1.704c-0.721,0.776-1.327,1.642-1.816,2.599c-0.486,0.926-0.807,1.863-0.985,2.758
		c-0.16,0.81-0.2,1.505-0.118,2.094c0.081,0.602,0.211,1.115,0.435,1.506c0.239,0.463,0.689,0.873,1.312,1.264
		c0.621,0.391,1.517,0.576,2.648,0.576c1.064,0,1.992-0.136,2.838-0.546c0.884-0.422,1.681-1.062,2.493-1.967
		c0.263-0.315,0.495-0.642,0.728-0.979c0.235-0.338,0.445-0.728,0.659-1.138c-1.168-0.159-2.333-0.315-3.5-0.473
		c-0.09,0.282-0.215,0.543-0.355,0.778c-0.156,0.259-0.292,0.461-0.47,0.673c-0.174,0.21-0.383,0.405-0.643,0.569
		c-0.272,0.172-0.617,0.254-1.02,0.254c-0.231-0.002-0.438,0-0.612-0.096c-0.156-0.086-0.292-0.191-0.372-0.316
		c-0.147-0.234-0.219-0.483-0.209-0.77c0.007-0.294,0.049-0.58,0.1-0.832c0.07-0.355,0.177-0.725,0.279-1.083
		c0.106-0.368,0.253-0.725,0.38-1.063c0.354-0.924,0.645-1.604,0.902-2.01c0.278-0.438,0.505-0.681,0.66-0.811
		c0.163-0.135,0.348-0.273,0.575-0.367c0.207-0.087,0.454-0.145,0.729-0.156c0.364-0.019,0.648,0.102,0.808,0.282
		c0.169,0.185,0.3,0.472,0.338,0.81c0.034,0.295,0.041,0.551,0.002,0.832c-0.038,0.267-0.057,0.442-0.082,0.568
		C401.259,104.153,402.444,104.06,403.663,103.954z"/>
	<path style="fill:#004799;" d="M406.026,99.214c-0.365,1.01-0.729,1.985-1.088,2.961c0.862,0,1.726,0,2.622-0.001
		c-0.591,1.644-1.187,3.278-1.775,4.907c-0.592,1.627-1.181,3.254-1.771,4.882c1.295,0,2.591,0,3.889,0
		c1.209-3.321,2.381-6.539,3.577-9.79c0.898,0,1.812,0,2.703,0c0.303-0.83,0.71-1.947,1.077-2.96
		C412.139,99.213,409.05,99.214,406.026,99.214z"/>
	<path style="fill:#004799;" d="M427.054,101.774c0.231,0,0.42,0.055,0.644,0.104c0.186,0.085,0.322,0.231,0.446,0.442
		c0.123,0.209,0.178,0.441,0.165,0.674c0.017,0.251-0.032,0.482-0.078,0.725c-0.082,0.409-0.225,0.945-0.45,1.598
		c-0.193,0.632-0.454,1.273-0.744,1.894c-0.32,0.619-0.613,1.083-0.952,1.45c-0.245,0.232-0.477,0.38-0.695,0.484
		c-0.253,0.104-0.487,0.127-0.756,0.127c-0.364,0-0.615-0.072-0.818-0.23c-0.234-0.148-0.355-0.381-0.434-0.663
		c-0.062-0.19-0.094-0.37-0.06-0.548c0.002-0.18,0.004-0.357,0.038-0.516c0.08-0.409,0.252-0.936,0.45-1.598
		c0.229-0.652,0.49-1.303,0.815-1.923c0.327-0.644,0.656-1.136,1.059-1.474c0.283-0.264,0.539-0.389,0.755-0.463
		C426.681,101.808,426.889,101.776,427.054,101.774L427.054,101.774z M427.941,98.992c-0.867,0-1.649,0.104-2.427,0.337
		c-0.746,0.23-1.527,0.652-2.342,1.24c-1.135,0.85-1.96,1.828-2.542,2.91c-0.585,1.112-0.967,2.188-1.14,3.217
		c-0.153,0.775-0.199,1.492-0.123,2.113c0.077,0.621,0.264,1.188,0.604,1.65c0.376,0.619,0.886,1.061,1.501,1.325
		c0.614,0.25,1.333,0.312,2.098,0.312c1.099,0,2.022-0.135,2.817-0.447c0.824-0.307,1.501-0.695,2.017-1.105
		c0.549-0.421,0.95-0.775,1.246-1.093c0.599-0.675,1.156-1.474,1.577-2.409c0.445-0.902,0.75-1.775,0.919-2.628
		c0.19-0.956,0.194-1.808,0.033-2.502c-0.153-0.726-0.441-1.293-0.857-1.702c-0.468-0.493-1-0.83-1.598-0.988
		C429.126,99.045,428.507,98.993,427.941,98.992L427.941,98.992z"/>
	<path style="fill:#004799;" d="M484.238,101.774c0.234,0,0.458,0.057,0.645,0.108c0.187,0.072,0.32,0.229,0.445,0.44
		c0.127,0.197,0.183,0.431,0.169,0.662c0.014,0.271,0,0.503-0.077,0.733c-0.083,0.409-0.225,0.957-0.418,1.599
		c-0.224,0.619-0.482,1.272-0.771,1.893c-0.285,0.607-0.611,1.083-0.949,1.439c-0.242,0.231-0.476,0.391-0.691,0.496
		c-0.222,0.104-0.493,0.125-0.757,0.125c-0.334,0-0.62-0.071-0.816-0.23c-0.202-0.156-0.354-0.391-0.433-0.674
		c-0.12-0.332-0.057-0.733,0.013-1.062c0.229-1.195,0.779-2.654,1.222-3.51c0.441-0.855,0.692-1.146,1.056-1.472
		c0.279-0.265,0.541-0.392,0.789-0.474C483.869,101.797,484.073,101.776,484.238,101.774L484.238,101.774z M485.12,98.992
		c-0.827,0-1.646,0.108-2.39,0.337c-0.776,0.23-1.556,0.643-2.369,1.24c-1.169,0.852-1.989,1.817-2.572,2.923
		c-0.58,1.102-0.957,2.165-1.131,3.194c-0.15,0.774-0.16,1.502-0.086,2.121c0.078,0.623,0.298,1.188,0.606,1.651
		c0.41,0.62,0.888,1.062,1.498,1.313c0.614,0.263,1.325,0.354,2.09,0.354c1.102-0.019,2.029-0.176,2.821-0.481
		c0.826-0.314,1.498-0.692,2.043-1.113c0.55-0.411,0.951-0.768,1.212-1.082c0.629-0.676,1.152-1.473,1.57-2.397
		c0.442-0.903,0.747-1.788,0.915-2.64c0.191-0.956,0.191-1.809,0.034-2.512c-0.16-0.715-0.411-1.291-0.796-1.701
		c-0.468-0.484-1.064-0.82-1.668-0.977C486.307,99.046,485.719,98.993,485.12,98.992L485.12,98.992z"/>
	<path style="fill:#004799;" d="M508.531,101.961c0.501,0,0.999,0,1.498,0c0.169-0.001,0.334-0.005,0.462,0.021
		c0.239,0.049,0.6,0.205,0.678,0.465c0.106,0.354-0.05,0.924-0.27,1.191c-0.152,0.189-0.304,0.327-0.49,0.465
		c-0.129,0.097-0.316,0.18-0.516,0.241c-0.194,0.063-0.418,0.128-0.756,0.128s-1.016,0-1.519,0
		C507.881,103.75,508.259,102.713,508.531,101.961L508.531,101.961z M505.586,99.158c-0.788,2.14-1.572,4.282-2.329,6.418
		c-0.754,2.136-1.538,4.268-2.291,6.387c1.3,0,2.594,0,3.927,0c0.279-0.766,0.507-1.394,0.824-2.269
		c0.318-0.873,0.59-1.594,0.861-2.364c0.532-0.001,1.033-0.011,1.633,0c0.598,0.01,1.363-0.011,2.088-0.127
		c0.727-0.116,1.444-0.386,2.168-0.853c0.725-0.473,1.34-1.053,1.802-1.723c0.468-0.669,0.844-1.387,0.971-2.046
		c0.129-0.66,0.058-1.14-0.087-1.582c-0.146-0.442-0.347-0.78-0.663-1.033c-0.368-0.337-0.827-0.548-1.372-0.653
		c-0.507-0.127-1.03-0.154-1.567-0.156C509.553,99.151,507.545,99.157,505.586,99.158L505.586,99.158z"/>
	<path style="fill:#004799;" d="M420.457,99.211c-1.304,0-2.651,0.001-3.962,0.001c-0.771,2.122-1.677,4.605-2.313,6.36
		c-0.777,2.135-1.735,4.769-2.325,6.391c1.309,0,2.617,0,3.961,0C416.985,108.751,419.099,102.942,420.457,99.211z"/>
	<path style="fill:#004799;" d="M435.907,99.204c-0.739,2.029-1.561,4.273-2.329,6.398c-0.771,2.123-1.547,4.25-2.315,6.359
		c1.074,0,1.999,0,3.071,0c0.82-2.256,1.906-5.234,2.773-7.611c0.61,2.545,1.215,5.065,1.827,7.611c1.074,0,2.194,0,3.304,0
		c1.412-3.883,3.729-10.256,4.644-12.76c-1.04,0-2.113,0-3.188,0c-0.586,1.609-1.645,4.521-2.482,6.818
		c-0.543-2.226-1.098-4.543-1.646-6.815C438.323,99.204,437.08,99.206,435.907,99.204z"/>
	<path style="fill:#004799;" d="M463.151,103.489c0.273-1.047,0.188-2.203-0.427-3.161c-0.798-1.044-2.132-1.347-3.354-1.302
		c-0.636-0.021-1.396,0.086-2.237,0.266c-0.846,0.2-1.736,0.624-2.646,1.27c-1.069,0.804-2.101,2.075-2.62,2.961
		c-0.681,1.168-1.144,2.311-1.454,3.642c-0.26,1.112-0.249,2.578,0.443,3.582c0.399,0.582,0.977,0.969,1.57,1.165
		c0.601,0.195,1.247,0.219,1.734,0.219c0.925-0.001,1.599-0.105,2.422-0.505c0.372-0.183,0.566-0.308,0.768-0.465
		c0.231-0.16,0.439-0.339,0.608-0.521c0,0,0.035,0,0.069,0c0.005,0.465,0.013,0.91,0.059,1.354c0.636,0,1.275,0,1.942,0
		c0.45-1.216,1.906-5.218,2.608-7.152c-1.942,0-3.888,0-5.8,0c-0.354,0.909-0.692,1.873-1.011,2.771c0.706,0,1.408,0,2.113,0
		c-0.077,0.232-0.203,0.498-0.376,0.699c-0.182,0.211-0.338,0.407-0.55,0.549c-0.42,0.279-0.887,0.436-1.398,0.436
		c-0.338-0.001-0.554-0.061-0.732-0.18c-0.414-0.268-0.566-0.626-0.551-1.09c0.022-0.62,0.188-1.159,0.325-1.756
		c0.117-0.492,0.355-1.057,0.604-1.627c0.264-0.623,0.604-1.238,0.985-1.693c0.376-0.455,0.716-0.698,1.053-0.889
		c0.335-0.146,0.652-0.233,0.922-0.233c0.3,0,0.527,0.053,0.672,0.159c0.335,0.297,0.398,0.656,0.381,1.089
		c-0.013,0.284-0.013,0.55-0.096,0.805C460.48,103.754,461.814,103.626,463.151,103.489z"/>
	<path style="fill:#004799;" d="M497.046,99.213c-1.329,0.001-2.63,0.002-3.932,0.003c-0.507,1.355-0.983,2.713-1.46,3.965
		c-0.492,1.307-0.962,2.639-1.424,3.959c-0.083,0.236-0.183,0.506-0.248,0.73c-0.057,0.21-0.12,0.436-0.16,0.637
		c-0.146,0.727-0.146,1.324,0.069,1.812c0.223,0.488,0.59,0.896,1.027,1.188c0.444,0.296,0.938,0.486,1.453,0.569
		c0.517,0.082,1.049,0.08,1.547,0.08c0.637,0,1.271,0.005,1.924-0.113c0.628-0.114,1.289-0.377,1.921-0.769
		c0.697-0.43,1.266-0.93,1.667-1.504c0.392-0.562,0.692-1.153,0.933-1.76c0.206-0.564,0.494-1.311,0.663-1.826
		c0.427-1.162,0.777-2.129,1.198-3.287c0.417-1.141,0.884-2.437,1.351-3.687c-1.032-0.001-2.063,0.001-3.134,0.001
		c-0.494,1.32-0.991,2.637-1.452,3.948c-0.463,1.31-0.966,2.616-1.42,3.925c-0.169,0.488-0.4,1.1-0.73,1.493
		c-0.27,0.313-0.537,0.517-0.826,0.622c-0.283,0.105-0.556,0.128-0.824,0.128c-0.198,0-0.396-0.022-0.619-0.074
		c-0.376-0.089-0.688-0.473-0.692-0.854c-0.004-0.157,0.004-0.291,0.035-0.447c0.048-0.209,0.134-0.493,0.207-0.692
		c0.079-0.241,0.17-0.472,0.266-0.721c0.44-1.211,0.884-2.426,1.329-3.646C496.154,101.678,496.601,100.452,497.046,99.213z"/>
</g>
<path style="fill:#004799;" d="M138.14,25.141l-63.268,0.01c-15.516,0-29.597,0-29.656,19.58c-0.013,4.379,2.003,10.195,6,14.38
	l20.822,22.363l-54.656,0.002c-4.632-6.703-7.244-14.312-7.244-22.373c0-27.042,29.416-48.964,65.704-48.964
	c11.938,0,23.131,2.374,32.781,6.52h20.148C114.629,6.094,95.483,0,75.842,0C36.948,0,0,23.877,0,59.103
	c0,13.1,5.11,24.632,13.536,33.947l65.167-0.003c17.759,0,27.151-3.899,27.151-17.457c0-4.772-2.554-9.973-7.662-15.598
	L77.623,37.15h56.965c4.451,6.603,6.955,14.062,6.955,21.952c0,27.04-29.416,48.961-65.701,48.961
	c-11.943-0.002-23.14-2.375-32.791-6.522H22.907c14.142,10.565,33.29,16.66,52.936,16.66c38.891,0,75.838-23.875,75.838-59.099
	C151.681,45.996,146.566,34.462,138.14,25.141L138.14,25.141z"/>
</svg>
