<?xml version="1.0" encoding="utf-8"?>
<!-- Generator: Adobe Illustrator 20.1.0, SVG Export Plug-In . SVG Version: 6.00 Build 0)  -->
<svg version="1.1" id="Layer_1" xmlns="http://www.w3.org/2000/svg" xmlns:xlink="http://www.w3.org/1999/xlink" x="0px" y="0px"
	 viewBox="0 0 166 69.3" style="enable-background:new 0 0 166 69.3;" xml:space="preserve">
<style type="text/css">
	.st0{clip-path:url(#SVGID_2_);fill:#212121;}
	.st1{clip-path:url(#SVGID_2_);fill:#009D3D;}
	.st2{clip-path:url(#SVGID_2_);fill:#969594;}
</style>
<g>
	<defs>
		<rect id="SVGID_1_" y="0" width="166" height="69.3"/>
	</defs>
	<clipPath id="SVGID_2_">
		<use xlink:href="#SVGID_1_"  style="overflow:visible;"/>
	</clipPath>
	<path class="st0" d="M14.3,68.8c-4.8-1.1-8.9-4.1-11.5-8.3c-2.6-4.2-3.4-9.2-2.3-14c0.1-0.4,0.2-0.8,0.3-1.2L1,44.9l0.5,0l4.2,0.9
		l-0.2,0.6c-0.1,0.4-0.3,0.8-0.4,1.2C4.3,51.2,4.9,54.9,6.8,58c1.9,3.1,4.9,5.3,8.5,6.1l0.4,0.1c8.1,1.7,16.3-3.5,18.2-11.6
		l4.1-19.7l4.7,1l-4.1,19.7c-2.3,9.6-11,16.2-20.8,15.7c-1-0.1-2-0.2-3-0.4C14.8,68.9,14.4,68.8,14.3,68.8"/>
	<path class="st1" d="M44,5.1c0.5,3.3-1.8,6.4-5.1,6.9c-3.3,0.5-6.4-1.8-6.9-5.1c-0.5-3.3,1.8-6.4,5.1-6.9C40.4-0.4,43.5,1.8,44,5.1
		"/>
	<path class="st1" d="M30.6,27.4c0.2-0.8,0.9-1.4,1.8-1.4h7c3.2,0,7.8,0.2,10.3,2.6c1.5,1.5,1.9,3.3,1.9,5.4c0,4.8-2.3,7.2-3.8,8.3
		c-2,1.6-5,2.8-9.2,2.8h-3.3c-0.4,0-0.8,0.3-0.9,0.7L32.7,54c-0.2,0.8-0.9,1.4-1.8,1.4h-4.9c-0.8,0-1.3-0.7-1.2-1.4L30.6,27.4z
		 M35.9,38.9c-0.1,0.4,0.2,0.7,0.6,0.7h1.4c0.8,0,2.7,0,4.2-1c0.6-0.4,1.7-1.5,1.7-3.5c0-1-0.2-1.8-0.6-2.3
		c-0.9-1.1-2.8-1.2-3.4-1.2h-1.6c-0.4,0-0.8,0.3-0.9,0.7L35.9,38.9z"/>
	<path class="st1" d="M83.3,32c-6.8,0-12.2,5.5-12.2,12.2c0,6.8,5.5,12.2,12.2,12.2c6.8,0,12.2-5.5,12.2-12.2
		C95.6,37.5,90.1,32,83.3,32 M83.3,50.4c-3.4,0-6.2-2.8-6.2-6.2c0-3.4,2.8-6.2,6.2-6.2c3.4,0,6.2,2.8,6.2,6.2
		C89.5,47.6,86.7,50.4,83.3,50.4"/>
	<path class="st1" d="M138.9,50.4c-2.3,0-4.3-1.3-5.4-3.1c-0.2-0.3,0.1-0.6,0.4-0.6h15.4c0.9,0,1.6-0.6,1.7-1.5c0-0.3,0-0.6,0-0.9
		c0-6.8-5.5-12.2-12.2-12.2c-6.8,0-12.2,5.5-12.2,12.2c0,6.8,5.5,12.2,12.2,12.2c4,0,7.5-1.9,9.7-4.8c0.4-0.5,0-1.2-0.6-1.2
		C145.1,50.4,138.9,50.4,138.9,50.4 M138.9,38.1c2.5,0,4.7,1.5,5.6,3.7c0.1,0.3-0.1,0.7-0.5,0.7h-10.3c-0.4,0-0.6-0.4-0.5-0.7
		C134.2,39.6,136.4,38.1,138.9,38.1"/>
	<path class="st1" d="M112.7,32c-0.9,0-1.9,0.1-2.7,0.3c-0.3,0.1-0.6-0.2-0.6-0.5l1.6-6.5c0.2-0.7-0.4-1.4-1.1-1.4h-4.5
		c-0.9,0-1.6,0.6-1.8,1.4L98.1,50c-0.4,1.8-0.8,3.1-1,4c-0.2,0.7,0.3,1.5,1,1.5h4.1c0.9,0,1.6-0.6,1.8-1.4l0.1-0.3
		c0.1-0.3,0.5-0.4,0.7-0.2c2.1,1.8,4.9,3,8,3c6.8,0,12.2-5.5,12.2-12.2C125,37.5,119.5,32,112.7,32 M112.7,50.4
		c-3.4,0-6.2-2.8-6.2-6.2c0-3.4,2.8-6.2,6.2-6.2c3.4,0,6.2,2.8,6.2,6.2C118.9,47.6,116.1,50.4,112.7,50.4"/>
	<path class="st1" d="M71.4,35.8c-0.3-1.7-1.8-2.9-3.5-2.8c0,0-2,0.1-3.8,1.5c-0.7,0.6-1.9,1.8-2.7,3.4c0,0,0,0.1-0.1,0.1
		c0,0,0,0,0,0l0.6-3c0.1-0.8-0.4-1.4-1.2-1.4h-4.1c-0.8,0-1.5,0.6-1.6,1.5c-0.1,1-0.4,2.5-0.8,4.3L51.2,54c-0.2,0.7,0.4,1.4,1.2,1.4
		H57c0.9,0,1.6-0.6,1.8-1.4l1.8-8.7c0.2-1,0.6-2.9,1.9-4.2c1.6-1.8,5.1-1.5,5.5-1.5v0c0.2,0,0.5,0,0.7,0
		C70.4,39.3,71.7,37.6,71.4,35.8"/>
	<path class="st2" d="M42.6,18.7c-1.4-1.8-3.3-3-5.5-3.5c-0.5-0.1-0.9-0.2-1.4-0.2l-0.6,0l-0.3,4.8l0.6,0c0.2,0,0.5,0,0.7,0.1
		c1.1,0.2,2.1,0.8,2.7,1.7c0.8,1.1,1.1,2.4,0.9,3.8l-1.6,7.5l4.7,1l1.6-7.6C44.9,23.6,44.3,20.8,42.6,18.7"/>
	<polygon class="st2" points="34.2,14.9 28.1,14.6 27.9,19.4 33.9,19.7 	"/>
	<path class="st0" d="M32.7,17.1c0,0.9-0.7,1.7-1.6,1.7c-0.9,0-1.7-0.7-1.7-1.6c0-0.9,0.7-1.7,1.6-1.7
		C31.9,15.5,32.7,16.2,32.7,17.1"/>
	<path class="st1" d="M160.3,23.9c0.8,0,1.5,0.1,2.2,0.4c0.7,0.3,1.3,0.7,1.8,1.2c0.5,0.5,0.9,1.1,1.2,1.8c0.3,0.7,0.4,1.4,0.4,2.2
		c0,0.8-0.1,1.5-0.4,2.2c-0.3,0.7-0.7,1.3-1.2,1.8c-0.6,0.5-1.2,1-1.9,1.3c-0.7,0.3-1.4,0.4-2.2,0.4c-0.8,0-1.5-0.1-2.2-0.4
		c-0.7-0.3-1.3-0.7-1.8-1.2c-0.5-0.5-1-1.2-1.2-1.8c-0.3-0.7-0.4-1.4-0.4-2.2c0-0.8,0.1-1.5,0.4-2.2c0.3-0.7,0.7-1.3,1.3-1.9
		c0.5-0.5,1.1-0.9,1.8-1.2C158.8,24,159.5,23.9,160.3,23.9 M160.3,24.9c-0.6,0-1.2,0.1-1.8,0.3c-0.6,0.2-1,0.6-1.5,1
		c-0.4,0.5-0.8,1-1,1.5c-0.2,0.6-0.4,1.2-0.4,1.8c0,0.6,0.1,1.2,0.4,1.8c0.2,0.6,0.6,1.1,1,1.5c0.4,0.4,0.9,0.8,1.5,1
		c0.6,0.2,1.2,0.4,1.8,0.4c0.6,0,1.2-0.1,1.8-0.4c0.6-0.2,1.1-0.6,1.5-1c0.4-0.4,0.8-0.9,1-1.5c0.2-0.6,0.3-1.1,0.3-1.8
		c0-0.6-0.1-1.2-0.3-1.8c-0.2-0.6-0.6-1.1-1-1.5c-0.4-0.4-1-0.8-1.5-1C161.6,25.1,161,24.9,160.3,24.9 M163.1,28.4h-1.6
		c0-0.3-0.2-0.6-0.4-0.8c-0.2-0.2-0.5-0.3-0.8-0.3c-0.4,0-0.8,0.2-1,0.6c-0.2,0.4-0.4,0.9-0.4,1.6c0,0.7,0.1,1.2,0.4,1.6
		c0.2,0.4,0.6,0.5,1.1,0.5c0.3,0,0.6-0.1,0.8-0.3c0.2-0.2,0.3-0.5,0.3-0.9h1.6c0,0.7-0.3,1.3-0.8,1.7c-0.5,0.4-1.2,0.7-2,0.7
		c-1,0-1.7-0.3-2.3-0.9c-0.6-0.6-0.8-1.4-0.8-2.4c0-1,0.3-1.9,0.8-2.5c0.6-0.6,1.3-0.9,2.3-0.9c0.8,0,1.4,0.2,2,0.6
		C162.8,27.2,163.1,27.7,163.1,28.4"/>
</g>
</svg>
